<svg width="136" height="41" viewBox="0 0 136 41" fill="none" xmlns="http://www.w3.org/2000/svg">
<path fill-rule="evenodd" clip-rule="evenodd" d="M20.1483 6.15625C21.7224 6.15625 23.0013 4.89453 23.0013 3.33203C22.9974 1.77734 21.7185 0.5 20.1483 0.5C18.5782 0.5 17.2992 1.77734 17.2992 3.33203C17.2992 4.89453 18.5782 6.15625 20.1483 6.15625ZM28.3059 17.8555H11.9946C10.4166 17.8555 9.1416 19.1055 9.1416 20.6719C9.1416 22.2266 10.4205 23.4805 11.9946 23.4805H28.3099C29.88 23.4805 31.1629 22.2266 31.1629 20.6719C31.1589 19.1055 29.8761 17.8555 28.3059 17.8555ZM16.4492 26.2969H23.8553C25.4254 26.2969 26.6965 27.5703 26.6925 29.1211C26.6925 30.6758 25.4215 31.9414 23.8553 31.9414L23.8474 31.9258H16.4414C14.8791 31.9258 13.6041 30.6563 13.6041 29.1016C13.6041 27.5469 14.887 26.2969 16.4492 26.2969ZM23.8553 9.25H16.4492C14.887 9.25 13.6041 10.5 13.6041 12.0508C13.6041 13.6133 14.8791 14.875 16.4414 14.875H23.8474L23.8553 14.8789C25.4215 14.8789 26.6925 13.6211 26.6925 12.0664C26.6965 10.5156 25.4254 9.25 23.8553 9.25ZM17.2992 37.6719C17.2992 36.1133 18.5782 34.8398 20.1483 34.8398C21.7185 34.8398 22.9974 36.1133 23.0013 37.6719C23.0013 39.2344 21.7224 40.5 20.1483 40.5C18.5821 40.5 17.2992 39.2344 17.2992 37.6719Z" fill="#FF5F00"/>
<path fill-rule="evenodd" clip-rule="evenodd" d="M79.7806 27.1578C80.9045 27.1578 82.0747 26.9273 83.1428 26.5308C83.4307 26.4294 83.7651 26.6415 83.7651 26.9365V31.6385C83.7651 31.8136 83.6258 31.9796 83.4493 32.0441C82.1305 32.5051 80.6816 32.7632 79.0748 32.7632C73.4185 32.7632 68.561 29.0017 68.561 20.9069C68.5981 13.015 73.2327 8.71875 79.1305 8.71875C80.5515 8.71875 81.9354 9.01377 83.2821 9.51163C83.4493 9.57616 83.5979 9.74212 83.5979 9.91729V14.4625C83.5979 14.7668 83.2543 14.9788 82.9664 14.8682C82.1397 14.5455 81.1274 14.3795 79.9385 14.3795C76.7807 14.3795 74.5516 16.5922 74.5516 20.9162C74.5516 25.0742 76.5856 27.1578 79.7806 27.1578ZM63.5642 14.9512C65.1617 14.9512 66.462 13.6604 66.462 12.0747C66.462 10.4797 65.1617 9.19818 63.5642 9.19818C61.9574 9.19818 60.6571 10.4889 60.6571 12.0747C60.6571 13.6604 61.9574 14.9512 63.5642 14.9512ZM118.836 26.8996H111.619V23.3686H118.789C119.031 23.3686 119.263 23.1749 119.263 22.9352V18.6297C119.263 18.39 119.031 18.1503 118.789 18.1503H111.619V14.61H118.836C119.077 14.61 119.263 14.4348 119.263 14.1951V9.63148C119.263 9.39178 119.077 9.21661 118.836 9.21661H106.232C105.991 9.21661 105.842 9.39178 105.842 9.63148V31.8874C105.842 32.1271 105.991 32.3115 106.232 32.3115H118.836C119.077 32.3115 119.263 32.1271 119.263 31.8874V27.3698C119.263 27.1301 119.077 26.8996 118.836 26.8996ZM52.7532 9.20737H57.75C58.0008 9.20737 58.1215 9.38254 58.1308 9.62225V31.8689C58.1308 32.1086 58.0101 32.293 57.7593 32.293H53.3848C53.0597 32.293 52.7811 32.1271 52.6325 31.8413L45.9731 19.229C46.3446 21.1835 46.5768 23.1288 46.5768 25.277V31.8782C46.5768 32.1179 46.3075 32.3023 46.066 32.3023H41.1806C40.9298 32.3023 40.7998 32.1179 40.7998 31.8782V9.62225C40.7998 9.38254 40.9391 9.20737 41.1806 9.20737H45.4344C45.7595 9.20737 46.066 9.38254 46.2146 9.66835L52.8647 22.2714C52.521 20.3169 52.3445 18.3439 52.3445 16.2234V9.62225C52.3445 9.38254 52.5117 9.20737 52.7532 9.20737ZM65.8676 17.9751H61.2422C61.0008 17.9751 60.8336 18.1226 60.8336 18.3623V31.8781C60.8336 32.1178 61.01 32.3022 61.2422 32.3022H65.8676C66.109 32.3022 66.2762 32.1178 66.2762 31.8781V18.3623C66.2762 18.1226 66.109 17.9751 65.8676 17.9751ZM135.405 26.8996H128.096V9.62225C128.096 9.38254 127.929 9.20737 127.687 9.20737H122.811C122.56 9.20737 122.319 9.38254 122.319 9.62225V31.8782C122.319 32.1179 122.56 32.3023 122.811 32.3023H135.415C135.656 32.3023 135.916 32.1179 135.916 31.8782V27.3514C135.907 27.1117 135.647 26.8996 135.405 26.8996ZM98.412 20.7779L104.152 31.6845C104.3 31.9704 104.087 32.3023 103.752 32.3023H98.9136C98.7464 32.3023 98.5792 32.2377 98.5142 32.081L93.9539 23.5345H91.9105V31.8782C91.9105 32.1179 91.7155 32.3023 91.474 32.3023H86.5886C86.3472 32.3023 86.1335 32.1179 86.1335 31.8782V9.62225C86.1335 9.38254 86.3472 9.20737 86.5886 9.20737H91.474C91.7062 9.20737 91.9105 9.38254 91.9105 9.62225V17.9659H93.9632L98.5699 9.29035C98.6163 9.20737 98.6999 9.20737 98.7928 9.20737H103.743C104.068 9.20737 104.282 9.53005 104.143 9.81586L98.412 20.7779Z" fill="white"/>
</svg>
